<?xml version="1.0" encoding="utf-8"?>
<!-- Generator: Adobe Illustrator 27.1.1, SVG Export Plug-In . SVG Version: 6.00 Build 0)  -->
<svg version="1.1" id="Livello_1" xmlns="http://www.w3.org/2000/svg" xmlns:xlink="http://www.w3.org/1999/xlink" x="0px" y="0px"
	 viewBox="0 0 50 50" style="enable-background:new 0 0 50 50;" xml:space="preserve">
<style type="text/css">
	.st0{fill:#224A05;}
	.st1{fill:#FFFFFF;}
</style>
<rect class="st0" width="50" height="50"/>
<path class="st1" d="M31.3,33L17,18.7c-0.3-0.3-0.3-0.8,0-1.2l0.5-0.5c0.3-0.3,0.8-0.3,1.2,0L33,31.3c0.3,0.3,0.3,0.8,0,1.2L32.5,33
	C32.1,33.3,31.6,33.3,31.3,33z"/>
<path class="st1" d="M33,18.7L18.7,33c-0.3,0.3-0.8,0.3-1.2,0L17,32.5c-0.3-0.3-0.3-0.8,0-1.2L31.3,17c0.3-0.3,0.8-0.3,1.2,0
	l0.5,0.5C33.3,17.9,33.3,18.4,33,18.7z"/>
</svg>
