<?xml version="1.0" encoding="utf-8"?>
<!-- Generator: Adobe Illustrator 27.1.1, SVG Export Plug-In . SVG Version: 6.00 Build 0)  -->
<svg version="1.1" id="Livello_1" xmlns="http://www.w3.org/2000/svg" xmlns:xlink="http://www.w3.org/1999/xlink" x="0px" y="0px"
	 viewBox="0 0 50 50" style="enable-background:new 0 0 50 50;" xml:space="preserve">
<style type="text/css">
	.st0{fill:#224A05;}
	.st1{fill:#FFFFFF;}
</style>
<rect class="st0" width="50" height="50"/>
<path class="st1" d="M35.1,20.8H14.9c-0.5,0-0.8-0.4-0.8-0.8v-0.8c0-0.5,0.4-0.8,0.8-0.8h20.2c0.5,0,0.8,0.4,0.8,0.8V20
	C35.9,20.4,35.6,20.8,35.1,20.8z"/>
<path class="st1" d="M35.1,26.2H14.9c-0.5,0-0.8-0.4-0.8-0.8v-0.8c0-0.5,0.4-0.8,0.8-0.8h20.2c0.5,0,0.8,0.4,0.8,0.8v0.8
	C35.9,25.8,35.6,26.2,35.1,26.2z"/>
<path class="st1" d="M35.1,31.6H14.9c-0.5,0-0.8-0.4-0.8-0.8V30c0-0.5,0.4-0.8,0.8-0.8h20.2c0.5,0,0.8,0.4,0.8,0.8v0.8
	C35.9,31.2,35.6,31.6,35.1,31.6z"/>
</svg>
