<svg width="40" height="40" viewBox="0 0 40 40" fill="none" xmlns="http://www.w3.org/2000/svg">
<path fill-rule="evenodd" clip-rule="evenodd" d="M37.6394 30.9637L31.6251 24.949C30.7877 24.1116 29.4299 24.1116 28.5925 24.949L25.5708 27.9705C24.8139 28.7279 23.6283 28.8726 22.7251 28.2978C18.2197 25.4309 14.4212 21.6624 11.6093 17.1948C11.0419 16.2931 11.1906 15.114 11.9439 14.3603L14.9744 11.33C15.8118 10.4926 15.8118 9.13466 14.9744 8.2972L8.95973 2.28256C8.12232 1.44473 6.76411 1.44473 5.92671 2.28293L2.36406 5.848C1.56926 6.64322 1.30261 7.82925 1.68973 8.88489C6.68588 22.5009 17.4219 33.2377 31.0375 38.2341C32.0927 38.6213 33.279 38.355 34.0742 37.5601L37.639 33.9969C38.4768 33.1594 38.4772 31.8015 37.6394 30.9637Z" stroke="white" stroke-width="1.83777" stroke-linecap="round" stroke-linejoin="round"/>
</svg>
